<?xml version="1.0" encoding="UTF-8" standalone="no"?>
<!-- Created with Inkscape (http://www.inkscape.org/) -->

<svg
   xmlns:dc="http://purl.org/dc/elements/1.1/"
   xmlns:cc="http://creativecommons.org/ns#"
   xmlns:rdf="http://www.w3.org/1999/02/22-rdf-syntax-ns#"
   xmlns:svg="http://www.w3.org/2000/svg"
   xmlns="http://www.w3.org/2000/svg"
   xmlns:xlink="http://www.w3.org/1999/xlink"
   xmlns:sodipodi="http://sodipodi.sourceforge.net/DTD/sodipodi-0.dtd"
   xmlns:inkscape="http://www.inkscape.org/namespaces/inkscape"
   width="64"
   version="1.1"
   height="64"
   id="svg2"
   inkscape:version="0.91 r13725"
   sodipodi:docname="folder-teamd.svg"
   inkscape:export-filename="/home/ruphy/folder-teamd.svg.png"
   inkscape:export-xdpi="180"
   inkscape:export-ydpi="180">
  <sodipodi:namedview
     pagecolor="#ffffff"
     bordercolor="#666666"
     borderopacity="1"
     objecttolerance="10"
     gridtolerance="10"
     guidetolerance="10"
     inkscape:pageopacity="0"
     inkscape:pageshadow="2"
     inkscape:window-width="1366"
     inkscape:window-height="721"
     id="namedview19"
     showgrid="false"
     inkscape:zoom="1"
     inkscape:cx="-137.23731"
     inkscape:cy="3.7786617"
     inkscape:window-x="0"
     inkscape:window-y="24"
     inkscape:window-maximized="1"
     inkscape:current-layer="layer1" />
  <defs
     id="defs5455">
    <linearGradient
       inkscape:collect="always"
       id="linearGradient4172-1">
      <stop
         style="stop-color:#3daee9"
         id="stop4174-0" />
      <stop
         offset="1"
         style="stop-color:#6cc1ef"
         id="stop4176-9" />
    </linearGradient>
    <linearGradient
       inkscape:collect="always"
       id="linearGradient4178-0"
       xlink:href="#linearGradient4172-1"
       y1="541.79797"
       y2="499.78421"
       gradientUnits="userSpaceOnUse"
       x2="0"
       gradientTransform="matrix(1 0 0 0.99967455 0 0.17645)" />
  </defs>
  <metadata
     id="metadata5458">
    <rdf:RDF>
      <cc:Work
         rdf:about="">
        <dc:format>image/svg+xml</dc:format>
        <dc:type
           rdf:resource="http://purl.org/dc/dcmitype/StillImage" />
        <dc:title />
      </cc:Work>
    </rdf:RDF>
  </metadata>
  <g
     inkscape:label="Capa 1"
     inkscape:groupmode="layer"
     id="layer1"
     transform="matrix(1 0 0 1 -384.57143 -483.798)">
    <g
       inkscape:label="Capa 1"
       id="layer1-82"
       transform="matrix(1 0 0 1 0 0.000005)">
      <path
         inkscape:connector-curvature="0"
         style="fill:#147eb8"
         id="rect4180-2"
         d="m 388.57143,489.79812 0,5 0,22 c 0,0.55373 0.446,1 1,1 l 54,0 c 0.55399,0 1,-0.44627 1,-1 l 0,-21.99023 c 0,-0.003 -0.002,-0.006 -0.002,-0.01 l 0.002,0 0,-1 -28,0 -4,-4 -24,0 z" />
      <path
         inkscape:connector-curvature="0"
         style="fill:url(#linearGradient4178-0)"
         id="rect4113-1"
         d="m 410.57143,499.79812 -4,4 -19,0 0,1 0.002,0 c -5e-5,0.004 -0.002,0.008 -0.002,0.0117 l 0,35.98828 0,1 1,0 56,0 1,0 0,-1 0,-35.98828 0,-0.0117 0,-5 z" />
      <path
         inkscape:connector-curvature="0"
         style="fill:#ffffff;fill-opacity:0.235294;fill-rule:evenodd"
         id="path4224-3"
         d="m 387.57144,503.79812 0,1 19.99999,0 3,-5 -4,4 z" />
      <path
         inkscape:connector-curvature="0"
         style="fill-opacity:0.235294;fill-rule:evenodd"
         id="path4228-2"
         d="m 388.57143,502.79812 0,1 18,0 4,-4 -6,3 z" />
      <path
         inkscape:connector-curvature="0"
         style="fill-opacity:0.235294"
         id="path4151-2-4"
         d="m 387.57143,540.7981 0,1 1,0 56,0 1,0 0,-1 -1,0 -56,0 -1,0 z" />
      <path
         inkscape:connector-curvature="0"
         style="fill:#ffffff;fill-opacity:0.235294;fill-rule:evenodd"
         id="path4196-9"
         d="m 28,6 3,5 2,0 27,0 0,-1 -27,0 -1,0 z"
         transform="matrix(1 0 0 1 384.57143 483.798)" />
    </g>
    <g
       transform="matrix(0.12768829,0,0,0.12768829,376.80776,461.08334)"
       id="g4191"
       style="fill:#1272a5;fill-opacity:1">
      <g
         style="font-style:normal;font-variant:normal;font-weight:normal;font-stretch:normal;font-size:211.39343262px;line-height:1000%;font-family:'DINbek Bold';-inkscape-font-specification:'DINbek Bold, Normal';text-align:start;letter-spacing:0px;word-spacing:0px;writing-mode:lr-tb;text-anchor:start;fill:#1272a5;fill-opacity:1;stroke:none;stroke-width:1px;stroke-linecap:butt;stroke-linejoin:miter;stroke-opacity:1"
         id="g4193">
        <path
           inkscape:connector-curvature="0"
           d="m 398.25266,467.02638 q 0,24.73304 -1.26837,32.97738 -3.1709,20.92795 -17.75704,31.92041 -14.37476,10.99246 -35.93689,10.99246 l -54.32811,0 0,-150.51213 54.32811,0 q 21.35074,0 35.72549,10.78107 14.58615,10.78106 17.96844,31.49762 1.26837,7.82156 1.26837,32.34319 z m -29.38369,0 0,-13.10639 q 0,-8.66713 -1.05697,-12.47221 -1.26836,-8.66713 -5.28484,-13.52918 -7.61016,-9.30131 -21.98491,-9.30131 l -22.19631,0 0,98.08655 22.19631,0 q 14.37475,0 21.98491,-9.30131 4.65066,-5.70762 5.91902,-19.4482 0.42279,-4.65065 0.42279,-20.92795 z"
           id="path4195"
           style="fill:#1272a5;fill-opacity:1" />
      </g>
      <circle
         style="opacity:1;fill:#1272a5;fill-opacity:1;stroke:none;stroke-width:2;stroke-linecap:round;stroke-linejoin:bevel;stroke-miterlimit:4;stroke-dasharray:none;stroke-dashoffset:0;stroke-opacity:1"
         id="circle4197"
         cx="242.89978"
         cy="446.26193"
         r="18.328348" />
    </g>
  </g>
</svg>
